<svg xmlns="http://www.w3.org/2000/svg" viewBox="0 0 48 48" role="img" aria-labelledby="coinCommunicationTitle coinCommunicationDesc">
  <title id="coinCommunicationTitle">伝え合いコイン</title>
  <desc id="coinCommunicationDesc">2つの吹き出しと往復する線で、伝え合う関係を表したコインアイコン</desc>
  <defs>
    <linearGradient id="coinCommunicationBg" x1="8" y1="6" x2="40" y2="42" gradientUnits="userSpaceOnUse">
      <stop stop-color="#FFF4FA"/>
      <stop offset="1" stop-color="#FFE7F3"/>
    </linearGradient>
  </defs>
  <rect x="4" y="4" width="40" height="40" rx="14" fill="url(#coinCommunicationBg)" stroke="#E8A8C8" stroke-width="1.8"/>
  <circle cx="24" cy="24" r="12" fill="#FFFFFF" fill-opacity=".42" stroke="#E8A8C8" stroke-width="2.2"/>
  <g fill="none" stroke="#E8A8C8" stroke-width="2.2" stroke-linecap="round" stroke-linejoin="round">
    <path d="M14.5 18.5a4 4 0 0 1 4-4h8a4 4 0 0 1 4 4v2.8a4 4 0 0 1-4 4h-2.8l-4.4 3.7v-3.7h-.8a4 4 0 0 1-4-4v-2.8Z"/>
    <path d="M33.5 24.2a3.7 3.7 0 0 1 2 3.3v1.6a3.8 3.8 0 0 1-3.8 3.8h-.9v3.1l-3.7-3.1h-4.3a3.8 3.8 0 0 1-3.4-2.1"/>
    <path d="M19.2 20h6.2"/>
    <path d="M23 29.2h5.8"/>
    <path d="M33.2 15.2l2 1.7"/>
    <path d="M14.8 34l-2 1.8"/>
  </g>
</svg>
