<svg xmlns="http://www.w3.org/2000/svg" viewBox="0 0 48 48" role="img" aria-labelledby="coinPromiseTitle coinPromiseDesc">
  <title id="coinPromiseTitle">約束コイン</title>
  <desc id="coinPromiseDesc">チェックマークと小さなリボンを組み合わせた、約束を守るコインアイコン</desc>
  <defs>
    <linearGradient id="coinPromiseBg" x1="8" y1="6" x2="40" y2="42" gradientUnits="userSpaceOnUse">
      <stop stop-color="#F3FAFF"/>
      <stop offset="1" stop-color="#E5F4FF"/>
    </linearGradient>
  </defs>
  <rect x="4" y="4" width="40" height="40" rx="14" fill="url(#coinPromiseBg)" stroke="#8FB8E8" stroke-width="1.8"/>
  <circle cx="24" cy="24" r="12" fill="#FFFFFF" fill-opacity=".42" stroke="#8FB8E8" stroke-width="2.2"/>
  <g fill="none" stroke="#8FB8E8" stroke-width="2.2" stroke-linecap="round" stroke-linejoin="round">
    <path d="M17 24.5l4.1 4.1L31.5 18.2"/>
    <path d="M18.5 14.5h11a3 3 0 0 1 3 3v13a3 3 0 0 1-3 3h-11a3 3 0 0 1-3-3v-13a3 3 0 0 1 3-3Z"/>
    <path d="M20 13v4"/>
    <path d="M28 13v4"/>
    <path d="M32.5 34.5l2 3.2 1.7-2.2 2.7.5-2.5-4"/>
  </g>
</svg>
